<svg width="100" height="100" viewBox="0 0 100 100" fill="none" xmlns="http://www.w3.org/2000/svg">
    <path fill-rule="evenodd" clip-rule="evenodd"
        d="M84.2731 26.4462C83.3421 24.0755 82.1148 22.0646 80.1046 20.0538C78.0944 18.0429 76.0841 16.8152 73.7142 15.8839C71.4289 14.9949 68.805 14.4022 64.9538 14.2117C61.1027 14.0423 59.8754 14 50.0782 14C40.281 14 39.0537 14.0423 35.2026 14.2117C31.3726 14.4022 28.7487 14.9949 26.4422 15.905C24.0723 16.8364 22.062 18.0641 20.0518 20.0749C18.0416 22.0858 16.8143 24.0967 15.8833 26.4674C14.9945 28.7534 14.402 31.3781 14.2116 35.2094C14.0423 39.0618 14 40.2895 14 50.0898C14 59.8902 14.0423 61.1179 14.2116 64.9703C14.402 68.8227 14.9945 71.4474 15.9044 73.7334C16.8355 76.1041 18.0628 78.115 20.073 80.1259C22.0832 82.1367 24.0934 83.3644 26.4634 84.2958C28.7487 85.1848 31.3726 85.7986 35.2237 85.968C39.0749 86.1373 40.3022 86.1796 50.0994 86.1796C59.8966 86.1796 61.1238 86.1373 64.975 85.968C68.805 85.7986 71.4289 85.1848 73.7353 84.2958C76.1053 83.3644 78.1155 82.1367 80.1257 80.1259C82.136 78.115 83.3633 76.1041 84.2943 73.7334C85.183 71.4474 85.7967 68.8227 85.966 64.9703C86.1352 61.1179 86.1776 59.8902 86.1776 50.0898C86.1776 40.2895 86.1352 39.0618 85.966 35.2094C85.7755 31.3781 85.1619 28.7534 84.2731 26.4462ZM50.0782 68.6322C39.8366 68.6322 31.5418 60.3347 31.5418 50.0898C31.5418 39.845 39.8366 31.5475 50.0782 31.5475C60.3198 31.5475 68.6146 39.845 68.6146 50.0898C68.6146 60.3347 60.3198 68.6322 50.0782 68.6322ZM69.3552 35.167C66.9641 35.167 65.0173 33.2197 65.0173 30.8278C65.0173 28.4359 66.9641 26.4886 69.3552 26.4886C71.7463 26.4886 73.693 28.4359 73.693 30.8278C73.6719 33.2197 71.7463 35.167 69.3552 35.167ZM62.1184 50.0898C62.1184 56.7363 56.7437 62.1127 50.0994 62.1127C43.455 62.1127 38.0803 56.7363 38.0803 50.0898C38.0803 43.4434 43.455 38.0669 50.0994 38.0669C56.7225 38.0669 62.1184 43.4434 62.1184 50.0898Z"
        fill="#83BCDC" />
</svg>