<svg width="34" height="34" viewBox="0 0 34 34" fill="none" xmlns="http://www.w3.org/2000/svg">
    <path
        d="M22.9706 11.0312H11.1849C10.4196 11.0312 9.6543 11.6435 9.6543 12.5619V21.4394C9.6543 22.2047 10.2665 22.97 11.1849 22.97H22.9706C23.7359 22.97 24.5012 22.3578 24.5012 21.4394V12.5619C24.5012 11.6435 23.7359 11.0312 22.9706 11.0312ZM22.9706 21.2864H11.1849V13.9394L16.6302 17.2904C16.9516 17.4882 17.357 17.4882 17.6784 17.2904L23.1237 13.9394V21.2864H22.9706ZM17.6914 15.8328C17.364 16.0452 16.943 16.0476 16.6131 15.8392L11.1849 12.4088H22.9706L17.6914 15.8328Z"
        fill="#56AEDB" />
    <path fill-rule="evenodd" clip-rule="evenodd"
        d="M3 17C3 24.713 9.28698 31 17 31C24.8594 31 31 24.7197 31 17C31 9.28698 24.713 3 17 3C9.28698 3 3 9.28698 3 17ZM2 17C2 25.2653 8.73469 32 17 32C25.4184 32 32 25.2653 32 17C32 8.7347 25.2653 2 17 2C8.73469 2 2 8.7347 2 17Z"
        fill="#56AEDB" />
</svg>