<svg width="31" height="35" viewBox="0 0 31 35" fill="none" xmlns="http://www.w3.org/2000/svg">
    <path
        d="M18.3938 21.538H9.68836V25.5361H23.1678V28.8893H9.68836V34.8219H4.63356V28.8893H0V25.5361H4.63356V21.538H0V17.282H4.63356V0H18.3938C21.6233 0 24.4315 1.03176 26.8185 3.22425C29.2055 5.41674 30.3288 7.86717 30.3288 10.8335C30.3288 13.7998 29.2055 16.3792 26.8185 18.4427C24.4315 20.5062 21.7637 21.538 18.3938 21.538ZM9.68836 4.38498V17.411H18.3938C20.2192 17.411 21.9041 16.7661 23.3082 15.4764C24.7123 14.1867 25.4144 12.6391 25.4144 10.8335C25.4144 9.0279 24.7123 7.48026 23.4486 6.19056C22.0445 4.90086 20.5 4.25601 18.5342 4.25601H9.68836V4.38498Z"
        fill="#585858" />
</svg>