<svg width="95" height="95" viewBox="0 0 95 95" fill="none" xmlns="http://www.w3.org/2000/svg">
    <path fill-rule="evenodd" clip-rule="evenodd"
        d="M88.6248 19.7451C88.4163 22.5471 86.6958 32.3418 85.0013 42.9162L79.6574 74.2984C79.6574 74.2984 79.2403 78.9034 75.5908 79.6831C71.9673 80.4871 65.9716 76.8811 64.9028 76.0771C64.0426 75.4679 48.8709 66.4773 43.3184 62.0916C41.8325 60.8977 40.112 58.4855 43.527 55.7079C51.2171 49.105 60.4191 40.9183 65.9716 35.7286C68.5263 33.3408 71.107 27.7368 60.4191 34.5347L30.2844 53.515C30.2844 53.515 26.8694 55.513 20.4567 53.71C14.0439 51.907 6.56238 49.5192 6.56238 49.5192C6.56238 49.5192 1.42696 46.5223 10.1858 43.3305L60.002 24.1552C64.9289 22.1572 81.5864 15.7736 81.5864 15.7736C81.5864 15.7736 89.2765 12.9716 88.6248 19.7451Z"
        fill="#83BCDC" />
</svg>