<svg xmlns="http://www.w3.org/2000/svg">
    <symbol id="Ilogo" viewBox="0 0 132 35">
        <path
            d="M5.06663 20.3451V29.7749H0V15.7422C0.449459 16.5365 1.0215 17.2901 1.69569 17.9825C2.47202 18.7768 3.30965 19.4286 4.229 19.9377C4.49459 20.0803 4.78061 20.2229 5.06663 20.3451Z"
            fill="#303030" />
        <path
            d="M30.1546 24.7867C30.1546 27.5769 29.2353 29.9395 27.3966 31.8132C25.5579 33.7073 23.2697 34.6442 20.5321 34.6442H12.4623V21.2429H17.6719V29.7562H20.5321C21.9009 29.7562 23.0246 29.3081 23.903 28.3916C24.7815 27.4751 25.2106 26.2734 25.2106 24.7663C25.2106 23.2592 24.7815 22.0575 23.903 21.141C23.045 20.2245 21.9213 19.7764 20.5321 19.7764H9.60208C7.96768 19.7764 6.49672 19.4506 5.18921 18.7785C5.10749 18.7377 5.00534 18.697 4.92362 18.6359C4.12685 18.2082 3.4118 17.6379 2.73761 16.9455C2.26772 16.477 1.87956 15.9679 1.53225 15.4383C0.572039 13.9515 0.0612899 12.2407 0 10.3059V9.53194C0.0817198 6.90463 1.00107 4.68465 2.75804 2.89237C4.59674 0.998255 6.88489 0.0410156 9.60208 0.0410156H17.6719V13.4424H12.4623V4.92905H9.60208C8.23327 4.92905 7.10962 5.37712 6.23114 6.29362C5.35265 7.21013 4.92362 8.41177 4.92362 9.91891C4.92362 11.4261 5.35265 12.6277 6.23114 13.5442C7.08919 14.4607 8.21284 14.9088 9.60208 14.9088H20.5117C23.2493 14.9088 25.5374 15.8456 27.3761 17.7398C29.2353 19.6339 30.1546 21.9761 30.1546 24.7867Z"
            fill="#303030" />
        <path
            d="M50.686 19.6953H54.4859V34.5834H50.686V26.5589L47.0699 32.5468H46.6817L43.086 26.5793V34.5834H39.2656V19.6953H43.086L46.8656 26.0498L50.686 19.6953Z"
            fill="#303030" />
        <path
            d="M49.2359 0H44.5779L39.6543 14.8881H43.8016L44.4349 12.7496H49.3994L50.0327 14.8881H54.1391L49.2359 0ZM45.4155 9.47056L46.9069 4.4196L48.4187 9.47056H45.4155Z"
            fill="#47A7E3" />
        <path
            d="M61.3293 0H55.2411V9.8779H59.1637V3.68639H61.3088C62.3508 3.68639 63.1884 4.03263 63.8422 4.7251C64.4959 5.41757 64.8228 6.31371 64.8228 7.45425C64.8228 8.59479 64.4959 9.49093 63.8422 10.1834C63.1884 10.8759 62.3508 11.2221 61.3088 11.2221H60.9207H59.1433H55.2207V14.9085H61.3088C63.3723 14.9085 65.0884 14.1957 66.4776 12.77C67.8669 11.3443 68.5615 9.5724 68.5615 7.47462C68.5615 5.35647 67.8669 3.58456 66.4776 2.17925C65.1088 0.712838 63.3927 0 61.3293 0Z"
            fill="#47A7E3" />
        <path
            d="M76.428 0H70.3398V3.68639H74.2624H75.7946H76.428C77.4699 3.68639 78.3075 4.03263 78.9613 4.7251C79.6151 5.41757 79.9419 6.31371 79.9419 7.45425C79.9419 8.59479 79.6151 9.49093 78.9613 10.1834C78.3075 10.8759 77.4699 11.2221 76.428 11.2221H74.2828V5.01023H70.3603V14.8881H76.4484C78.5118 14.8881 80.228 14.1753 81.6172 12.7496C83.0064 11.3239 83.701 9.55203 83.701 7.45425C83.701 5.3361 83.0064 3.56419 81.6172 2.15888C80.2075 0.712838 78.4914 0 76.428 0Z"
            fill="#47A7E3" />
        <path d="M108.299 23.3817H111.997V34.5834H115.817V23.3817H119.494V19.6953H108.299V23.3817Z"
            fill="#303030" />
        <path
            d="M131.057 28.3305C130.791 27.7806 130.403 27.3326 129.893 26.9863C129.361 26.6401 128.891 26.3753 128.442 26.192C127.993 26.0087 127.421 25.805 126.685 25.6014C125.684 25.2959 124.989 25.0515 124.642 24.8071C124.295 24.583 124.111 24.2979 124.111 23.972C124.111 23.6869 124.233 23.4629 124.458 23.2796C124.683 23.0963 125.03 22.9944 125.5 22.9944C126.583 22.9944 127.359 23.5443 127.829 24.6441L131.037 22.7704C130.526 21.6706 129.79 20.8152 128.81 20.2449C127.85 19.6543 126.726 19.3691 125.48 19.3691C124.009 19.3691 122.763 19.7968 121.782 20.6522C120.801 21.5077 120.29 22.6075 120.29 23.9924C120.29 25.2755 120.679 26.2735 121.475 26.9863C122.272 27.6992 123.355 28.2491 124.724 28.6564C125.684 28.9212 126.317 29.1248 126.603 29.2267C127.278 29.4914 127.604 29.858 127.604 30.2857C127.604 30.9579 127.012 31.2837 125.847 31.2837C124.438 31.2837 123.457 30.632 122.906 29.3081L119.637 31.2023C120.045 32.3428 120.781 33.2389 121.802 33.911C122.844 34.5831 124.152 34.909 125.725 34.909C127.441 34.909 128.81 34.5017 129.852 33.6666C130.894 32.852 131.404 31.7114 131.404 30.245C131.445 29.5118 131.323 28.8601 131.057 28.3305Z"
            fill="#303030" />
        <path
            d="M65.15 19.6953H60.492L55.5684 34.5834H59.7156L60.349 32.4449H65.3134L65.9468 34.5834H70.0736L65.15 19.6953ZM61.3296 29.1659L62.821 24.1149L64.3328 29.1659H61.3296Z"
            fill="#303030" />
        <path
            d="M101.659 28.8196H106.808V25.3166H101.659V23.2595H107.339V19.6953H97.8594V34.5834H107.441V31.0193H101.659V28.8196Z"
            fill="#303030" />
        <path
            d="M96.5504 19.6953H92.2805L88.2149 25.9479V19.6953H84.3945V34.5834H88.2149V27.9235L92.5052 34.5834H96.7547L91.8106 26.9255L96.5504 19.6953Z"
            fill="#303030" />
        <path
            d="M79.982 29.0844C80.7583 28.6363 81.3917 28.0457 81.8411 27.3125C82.2906 26.5589 82.5153 25.7443 82.5153 24.8481C82.5153 23.3613 82.0046 22.1393 80.9626 21.1617C79.9411 20.1841 78.6541 19.6953 77.1422 19.6953H76.8971H76.3046H74.9767H72.4025H71.1562V34.5834H74.9767V29.7769H76.3455L78.9401 34.5834H83.0261L79.982 29.0844ZM78.2455 26.0905C77.939 26.396 77.5713 26.5589 77.1014 26.5386H74.9767V25.561V23.1984H76.3046H76.8971H77.0809C77.5508 23.1984 77.939 23.3613 78.225 23.6668C78.5315 23.9723 78.6745 24.3797 78.6745 24.8888C78.6949 25.3777 78.5519 25.785 78.2455 26.0905Z"
            fill="currentColor" />
    </symbol>

    <symbol id="IArrowBottom" viewBox="0 0 9 7">
        <path
            d="M4.95842 5.72063C4.55812 6.24064 3.77391 6.24064 3.37361 5.72063L0.209238 1.60999C-0.296959 0.952426 0.171804 7.99525e-08 1.00164 1.52499e-07L7.33039 7.05776e-07C8.16023 7.78323e-07 8.62899 0.952426 8.12279 1.61L4.95842 5.72063Z"
            fill="currentColor" />
    </symbol>

    <symbol id="IPost" viewBox="0 0 34 34">
        <path
            d="M22.9706 11.0312H11.1849C10.4196 11.0312 9.6543 11.6435 9.6543 12.5619V21.4394C9.6543 22.2047 10.2665 22.97 11.1849 22.97H22.9706C23.7359 22.97 24.5012 22.3578 24.5012 21.4394V12.5619C24.5012 11.6435 23.7359 11.0312 22.9706 11.0312ZM22.9706 21.2864H11.1849V13.9394L16.6302 17.2904C16.9516 17.4882 17.357 17.4882 17.6784 17.2904L23.1237 13.9394V21.2864H22.9706ZM17.6914 15.8328C17.364 16.0452 16.943 16.0476 16.6131 15.8392L11.1849 12.4088H22.9706L17.6914 15.8328Z"
            fill="currentColor" />
        <path fill-rule="evenodd" clip-rule="evenodd"
            d="M3 17C3 24.713 9.28698 31 17 31C24.8594 31 31 24.7197 31 17C31 9.28698 24.713 3 17 3C9.28698 3 3 9.28698 3 17ZM2 17C2 25.2653 8.73469 32 17 32C25.4184 32 32 25.2653 32 17C32 8.7347 25.2653 2 17 2C8.73469 2 2 8.7347 2 17Z"
            fill="currentColor" />
    </symbol>

    <symbol id="IMenu" viewBox="0 0 34 34">
        <path fill-rule="evenodd" clip-rule="evenodd"
            d="M3 17C3 24.713 9.28698 31 17 31C24.8594 31 31 24.7197 31 17C31 9.28698 24.713 3 17 3C9.28698 3 3 9.28698 3 17ZM2 17C2 25.2653 8.73469 32 17 32C25.4184 32 32 25.2653 32 17C32 8.7347 25.2653 2 17 2C8.73469 2 2 8.7347 2 17Z"
            fill="currentColor" />
        <rect x="11.5005" y="12.2002" width="10.9091" height="1.4" rx="0.4" fill="currentColor" />
        <rect x="11.5" y="16.2905" width="10.9091" height="1.4" rx="0.4" fill="currentColor" />
        <rect x="11.5" y="20.3818" width="10.9091" height="1.4" rx="0.4" fill="currentColor" />
    </symbol>

    <symbol id="Itelegramm" viewBox="0 0 95 95">
        <path fill-rule="evenodd" clip-rule="evenodd"
            d="M88.6248 19.7451C88.4163 22.5471 86.6958 32.3418 85.0013 42.9162L79.6574 74.2984C79.6574 74.2984 79.2403 78.9034 75.5908 79.6831C71.9673 80.4871 65.9716 76.8811 64.9028 76.0771C64.0426 75.4679 48.8709 66.4773 43.3184 62.0916C41.8325 60.8977 40.112 58.4855 43.527 55.7079C51.2171 49.105 60.4191 40.9183 65.9716 35.7286C68.5263 33.3408 71.107 27.7368 60.4191 34.5347L30.2844 53.515C30.2844 53.515 26.8694 55.513 20.4567 53.71C14.0439 51.907 6.56238 49.5192 6.56238 49.5192C6.56238 49.5192 1.42696 46.5223 10.1858 43.3305L60.002 24.1552C64.9289 22.1572 81.5864 15.7736 81.5864 15.7736C81.5864 15.7736 89.2765 12.9716 88.6248 19.7451Z"
            fill="currentColor" />
    </symbol>

    <symbol id="IInstagram" viewBox="0 0 100 100">
        <path fill-rule="evenodd" clip-rule="evenodd"
            d="M84.2731 26.4462C83.3421 24.0755 82.1148 22.0646 80.1046 20.0538C78.0944 18.0429 76.0841 16.8152 73.7142 15.8839C71.4289 14.9949 68.805 14.4022 64.9538 14.2117C61.1027 14.0423 59.8754 14 50.0782 14C40.281 14 39.0537 14.0423 35.2026 14.2117C31.3726 14.4022 28.7487 14.9949 26.4422 15.905C24.0723 16.8364 22.062 18.0641 20.0518 20.0749C18.0416 22.0858 16.8143 24.0967 15.8833 26.4674C14.9945 28.7534 14.402 31.3781 14.2116 35.2094C14.0423 39.0618 14 40.2895 14 50.0898C14 59.8902 14.0423 61.1179 14.2116 64.9703C14.402 68.8227 14.9945 71.4474 15.9044 73.7334C16.8355 76.1041 18.0628 78.115 20.073 80.1259C22.0832 82.1367 24.0934 83.3644 26.4634 84.2958C28.7487 85.1848 31.3726 85.7986 35.2237 85.968C39.0749 86.1373 40.3022 86.1796 50.0994 86.1796C59.8966 86.1796 61.1238 86.1373 64.975 85.968C68.805 85.7986 71.4289 85.1848 73.7353 84.2958C76.1053 83.3644 78.1155 82.1367 80.1257 80.1259C82.136 78.115 83.3633 76.1041 84.2943 73.7334C85.183 71.4474 85.7967 68.8227 85.966 64.9703C86.1352 61.1179 86.1776 59.8902 86.1776 50.0898C86.1776 40.2895 86.1352 39.0618 85.966 35.2094C85.7755 31.3781 85.1619 28.7534 84.2731 26.4462ZM50.0782 68.6322C39.8366 68.6322 31.5418 60.3347 31.5418 50.0898C31.5418 39.845 39.8366 31.5475 50.0782 31.5475C60.3198 31.5475 68.6146 39.845 68.6146 50.0898C68.6146 60.3347 60.3198 68.6322 50.0782 68.6322ZM69.3552 35.167C66.9641 35.167 65.0173 33.2197 65.0173 30.8278C65.0173 28.4359 66.9641 26.4886 69.3552 26.4886C71.7463 26.4886 73.693 28.4359 73.693 30.8278C73.6719 33.2197 71.7463 35.167 69.3552 35.167ZM62.1184 50.0898C62.1184 56.7363 56.7437 62.1127 50.0994 62.1127C43.455 62.1127 38.0803 56.7363 38.0803 50.0898C38.0803 43.4434 43.455 38.0669 50.0994 38.0669C56.7225 38.0669 62.1184 43.4434 62.1184 50.0898Z"
            fill="currentColor" />
    </symbol>

    <symbol id="IPrice" viewBox="0 0 31 35">
        <path
            d="M18.3938 21.538H9.68836V25.5361H23.1678V28.8893H9.68836V34.8219H4.63356V28.8893H0V25.5361H4.63356V21.538H0V17.282H4.63356V0H18.3938C21.6233 0 24.4315 1.03176 26.8185 3.22425C29.2055 5.41674 30.3288 7.86717 30.3288 10.8335C30.3288 13.7998 29.2055 16.3792 26.8185 18.4427C24.4315 20.5062 21.7637 21.538 18.3938 21.538ZM9.68836 4.38498V17.411H18.3938C20.2192 17.411 21.9041 16.7661 23.3082 15.4764C24.7123 14.1867 25.4144 12.6391 25.4144 10.8335C25.4144 9.0279 24.7123 7.48026 23.4486 6.19056C22.0445 4.90086 20.5 4.25601 18.5342 4.25601H9.68836V4.38498Z"
            fill="#585858" />
    </symbol>
</svg>